<mxfile host="Electron" agent="Mozilla/5.0 (X11; Linux x86_64) AppleWebKit/537.36 (KHTML, like Gecko) draw.io/27.0.9 Chrome/134.0.6998.205 Electron/35.4.0 Safari/537.36" version="27.0.9" pages="2">
  <diagram name="Page-1" id="NswXwJL6E9LfS_HmBp0x">
    <mxGraphModel dx="753" dy="632" grid="1" gridSize="10" guides="1" tooltips="1" connect="1" arrows="1" fold="1" page="1" pageScale="1" pageWidth="850" pageHeight="1100" math="0" shadow="0">
      <root>
        <mxCell id="0" />
        <mxCell id="1" parent="0" />
        <mxCell id="4Ss9BtsnYvLncyEvfZ_0-3" style="edgeStyle=orthogonalEdgeStyle;rounded=0;orthogonalLoop=1;jettySize=auto;html=1;" edge="1" parent="1" source="TmoA-XCCB71Szj-cXvBl-1" target="Sg5vW2Cq4FGtIZK8YoNj-1">
          <mxGeometry relative="1" as="geometry">
            <mxPoint x="200" y="230" as="targetPoint" />
          </mxGeometry>
        </mxCell>
        <mxCell id="4Ss9BtsnYvLncyEvfZ_0-4" style="edgeStyle=orthogonalEdgeStyle;rounded=0;orthogonalLoop=1;jettySize=auto;html=1;entryX=0.5;entryY=0;entryDx=0;entryDy=0;" edge="1" parent="1" source="TmoA-XCCB71Szj-cXvBl-1" target="Sg5vW2Cq4FGtIZK8YoNj-2">
          <mxGeometry relative="1" as="geometry">
            <mxPoint x="540" y="230" as="targetPoint" />
          </mxGeometry>
        </mxCell>
        <mxCell id="TmoA-XCCB71Szj-cXvBl-1" value="Pizza" style="text;strokeColor=#3700CC;align=center;fillColor=#6a00ff;html=1;verticalAlign=middle;whiteSpace=wrap;rounded=0;strokeWidth=2;fontSize=30;fontColor=#ffffff;gradientColor=#CC00CC;" vertex="1" parent="1">
          <mxGeometry x="200" y="30" width="345" height="90" as="geometry" />
        </mxCell>
        <mxCell id="Sg5vW2Cq4FGtIZK8YoNj-1" value="&lt;font style=&quot;font-size: 25px;&quot;&gt;Base&lt;/font&gt;" style="text;strokeColor=#006EAF;align=center;fillColor=#1ba1e2;html=1;verticalAlign=middle;whiteSpace=wrap;rounded=0;strokeWidth=2;fontSize=30;fontColor=#ffffff;" vertex="1" parent="1">
          <mxGeometry x="130" y="240" width="130" height="60" as="geometry" />
        </mxCell>
        <mxCell id="Sg5vW2Cq4FGtIZK8YoNj-2" value="&lt;font style=&quot;font-size: 25px;&quot;&gt;Delux&lt;/font&gt;" style="text;strokeColor=#BD7000;align=center;fillColor=#f0a30a;html=1;verticalAlign=middle;whiteSpace=wrap;rounded=0;strokeWidth=2;fontSize=30;fontColor=#000000;" vertex="1" parent="1">
          <mxGeometry x="480" y="240" width="130" height="60" as="geometry" />
        </mxCell>
        <mxCell id="Sg5vW2Cq4FGtIZK8YoNj-11" value="" style="group" vertex="1" connectable="0" parent="1">
          <mxGeometry x="280" y="370" width="200" height="40" as="geometry" />
        </mxCell>
        <mxCell id="Sg5vW2Cq4FGtIZK8YoNj-7" value="&lt;font style=&quot;font-size: 25px;&quot;&gt;Veg&lt;/font&gt;" style="text;strokeColor=#2D7600;align=center;fillColor=#60a917;html=1;verticalAlign=middle;whiteSpace=wrap;rounded=0;strokeWidth=2;fontSize=30;fontColor=#ffffff;movable=0;resizable=0;rotatable=0;deletable=0;editable=0;locked=1;connectable=0;" vertex="1" parent="Sg5vW2Cq4FGtIZK8YoNj-11">
          <mxGeometry width="90" height="40" as="geometry" />
        </mxCell>
        <mxCell id="Sg5vW2Cq4FGtIZK8YoNj-9" value="&lt;font style=&quot;font-size: 25px;&quot;&gt;Non-Veg&lt;/font&gt;" style="text;strokeColor=#6F0000;align=center;fillColor=#a20025;html=1;verticalAlign=middle;whiteSpace=wrap;rounded=0;strokeWidth=2;fontSize=30;fontColor=#ffffff;movable=0;resizable=0;rotatable=0;deletable=0;editable=0;locked=1;connectable=0;" vertex="1" parent="Sg5vW2Cq4FGtIZK8YoNj-11">
          <mxGeometry x="90" width="110" height="40" as="geometry" />
        </mxCell>
        <mxCell id="Sg5vW2Cq4FGtIZK8YoNj-22" value="&lt;font style=&quot;font-size: 25px;&quot;&gt;Takeaway&lt;/font&gt;" style="text;strokeColor=#001DBC;align=center;fillColor=#0050ef;html=1;verticalAlign=middle;whiteSpace=wrap;rounded=0;strokeWidth=2;fontSize=30;fontColor=#ffffff;" vertex="1" parent="1">
          <mxGeometry x="280" y="430" width="200" height="40" as="geometry" />
        </mxCell>
        <mxCell id="Sg5vW2Cq4FGtIZK8YoNj-27" style="edgeStyle=orthogonalEdgeStyle;rounded=0;orthogonalLoop=1;jettySize=auto;html=1;" edge="1" parent="1" source="Sg5vW2Cq4FGtIZK8YoNj-24" target="Sg5vW2Cq4FGtIZK8YoNj-1">
          <mxGeometry relative="1" as="geometry" />
        </mxCell>
        <mxCell id="Sg5vW2Cq4FGtIZK8YoNj-28" style="edgeStyle=orthogonalEdgeStyle;rounded=0;orthogonalLoop=1;jettySize=auto;html=1;" edge="1" parent="1" source="Sg5vW2Cq4FGtIZK8YoNj-24">
          <mxGeometry relative="1" as="geometry">
            <mxPoint x="560" y="310" as="targetPoint" />
          </mxGeometry>
        </mxCell>
        <mxCell id="Sg5vW2Cq4FGtIZK8YoNj-24" value="Common features" style="swimlane;whiteSpace=wrap;html=1;" vertex="1" parent="1">
          <mxGeometry x="270" y="330" width="220" height="160" as="geometry" />
        </mxCell>
        <mxCell id="Sg5vW2Cq4FGtIZK8YoNj-42" style="edgeStyle=orthogonalEdgeStyle;rounded=0;orthogonalLoop=1;jettySize=auto;html=1;" edge="1" parent="1" source="Sg5vW2Cq4FGtIZK8YoNj-29" target="Sg5vW2Cq4FGtIZK8YoNj-2">
          <mxGeometry relative="1" as="geometry" />
        </mxCell>
        <mxCell id="Sg5vW2Cq4FGtIZK8YoNj-29" value="Inclusive features" style="swimlane;whiteSpace=wrap;html=1;" vertex="1" parent="1">
          <mxGeometry x="500" y="440" width="190" height="160" as="geometry">
            <mxRectangle x="70" y="430" width="140" height="30" as="alternateBounds" />
          </mxGeometry>
        </mxCell>
        <mxCell id="Sg5vW2Cq4FGtIZK8YoNj-30" value="&lt;font style=&quot;font-size: 23px; color: rgb(0, 0, 0);&quot;&gt;Extra Cheese&lt;/font&gt;" style="text;strokeColor=#006EAF;align=center;fillColor=#FFFF33;html=1;verticalAlign=middle;whiteSpace=wrap;rounded=0;strokeWidth=2;fontSize=30;fontColor=#ffffff;" vertex="1" parent="Sg5vW2Cq4FGtIZK8YoNj-29">
          <mxGeometry x="15" y="40" width="160" height="40" as="geometry" />
        </mxCell>
        <mxCell id="Sg5vW2Cq4FGtIZK8YoNj-31" value="&lt;font style=&quot;font-size: 23px; color: rgb(0, 0, 0);&quot;&gt;Extra Toppings&lt;/font&gt;" style="text;strokeColor=#006EAF;align=center;fillColor=#FFFF33;html=1;verticalAlign=middle;whiteSpace=wrap;rounded=0;strokeWidth=2;fontSize=30;fontColor=#ffffff;" vertex="1" parent="Sg5vW2Cq4FGtIZK8YoNj-29">
          <mxGeometry x="15" y="100" width="160" height="40" as="geometry" />
        </mxCell>
        <mxCell id="Sg5vW2Cq4FGtIZK8YoNj-43" style="edgeStyle=orthogonalEdgeStyle;rounded=0;orthogonalLoop=1;jettySize=auto;html=1;entryX=0;entryY=0.5;entryDx=0;entryDy=0;" edge="1" parent="1" source="Sg5vW2Cq4FGtIZK8YoNj-38" target="Sg5vW2Cq4FGtIZK8YoNj-1">
          <mxGeometry relative="1" as="geometry" />
        </mxCell>
        <mxCell id="Sg5vW2Cq4FGtIZK8YoNj-38" value="Exclusive features" style="swimlane;whiteSpace=wrap;html=1;" vertex="1" parent="1">
          <mxGeometry x="80" y="440" width="190" height="160" as="geometry">
            <mxRectangle x="70" y="430" width="140" height="30" as="alternateBounds" />
          </mxGeometry>
        </mxCell>
        <mxCell id="Sg5vW2Cq4FGtIZK8YoNj-39" value="&lt;font style=&quot;font-size: 23px;&quot;&gt;Extra Cheese&lt;/font&gt;" style="text;strokeColor=#006EAF;align=center;fillColor=#6144B0;html=1;verticalAlign=middle;whiteSpace=wrap;rounded=0;strokeWidth=2;fontSize=30;fontColor=#ffffff;" vertex="1" parent="Sg5vW2Cq4FGtIZK8YoNj-38">
          <mxGeometry x="15" y="40" width="160" height="40" as="geometry" />
        </mxCell>
        <mxCell id="Sg5vW2Cq4FGtIZK8YoNj-40" value="&lt;font style=&quot;font-size: 23px;&quot;&gt;Extra Toppings&lt;/font&gt;" style="text;strokeColor=#006EAF;align=center;fillColor=#24B58C;html=1;verticalAlign=middle;whiteSpace=wrap;rounded=0;strokeWidth=2;fontSize=30;fontColor=#ffffff;" vertex="1" parent="Sg5vW2Cq4FGtIZK8YoNj-38">
          <mxGeometry x="15" y="100" width="160" height="40" as="geometry" />
        </mxCell>
      </root>
    </mxGraphModel>
  </diagram>
  <diagram id="xOm8eErTL_aDP3BGPWxE" name="Page-2">
    <mxGraphModel grid="1" page="1" gridSize="10" guides="1" tooltips="1" connect="1" arrows="1" fold="1" pageScale="1" pageWidth="850" pageHeight="1100" math="0" shadow="0">
      <root>
        <mxCell id="0" />
        <mxCell id="1" parent="0" />
      </root>
    </mxGraphModel>
  </diagram>
</mxfile>
